<?xml version="1.0" encoding="UTF-8"?>
<!-- Generator: Adobe Illustrator 26.0.1, SVG Export Plug-In . SVG Version: 6.00 Build 0)  -->
<svg xmlns="http://www.w3.org/2000/svg" xmlns:xlink="http://www.w3.org/1999/xlink" version="1.1" id="Capa_1" x="0px" y="0px" viewBox="0 0 20 24" style="enable-background:new 0 0 24 24;" xml:space="preserve" width="48" height="48">
<g>
	<path style="fill:white;" id="Path_2520" d="M17.291,19.073h-3.007v-4.709c0-1.123-0.02-2.568-1.564-2.568c-1.566,0-1.806,1.223-1.806,2.487v4.79H7.908   V9.389h2.887v1.323h0.04c0.589-1.006,1.683-1.607,2.848-1.564c3.048,0,3.609,2.005,3.609,4.612L17.291,19.073z M4.515,8.065   c-0.964,0-1.745-0.781-1.745-1.745c0-0.964,0.781-1.745,1.745-1.745c0.964,0,1.745,0.781,1.745,1.745   C6.26,7.284,5.479,8.065,4.515,8.065L4.515,8.065 M6.018,19.073h-3.01V9.389h3.01V19.073z M18.79,1.783H1.497   C0.68,1.774,0.01,2.429,0,3.246V20.61c0.01,0.818,0.68,1.473,1.497,1.464H18.79c0.819,0.01,1.492-0.645,1.503-1.464V3.245   c-0.012-0.819-0.685-1.474-1.503-1.463"/>
</g>

</svg>
